<?xml version="1.0" encoding="UTF-8"?>
<svg version="1.1" xmlns="http://www.w3.org/2000/svg" width="29" height="24">
<path d="M0 0 C1.65 0 3.3 0 5 0 C5 0.66 5 1.32 5 2 C3.68 2 2.36 2 1 2 C0.87625 2.886875 0.7525 3.77375 0.625 4.6875 C0 8 0 8 -1.125 10.625 C-2.13074689 13.35488442 -1.87156073 14.29816175 -1 17 C-1 21 -1 21 -3 24 C-4.65 23.67 -6.3 23.34 -8 23 C-8 22.34 -8 21.68 -8 21 C-10.97 21 -13.94 21 -17 21 C-17 21.99 -17 22.98 -17 24 C-18.65 23.67 -20.3 23.34 -22 23 C-21.67 21.68 -21.34 20.36 -21 19 C-16.38 18.67 -11.76 18.34 -7 18 C-9.10375 17.690625 -11.2075 17.38125 -13.375 17.0625 C-19.75 16.125 -19.75 16.125 -22 15 C-23 12 -23 12 -23 4 C-15.74 4 -8.48 4 -1 4 C-0.67 2.68 -0.34 1.36 0 0 Z M-21 6 C-20.67 7.65 -20.34 9.3 -20 11 C-19.34 10.34 -18.68 9.68 -18 9 C-15.43083343 8.69400937 -12.95241616 8.48912913 -10.375 8.375 C-9.66859375 8.33632812 -8.9621875 8.29765625 -8.234375 8.2578125 C-6.49001476 8.16352276 -4.74504309 8.08067109 -3 8 C-3 7.34 -3 6.68 -3 6 C-8.94 6 -14.88 6 -21 6 Z M-14 13 C-10.77208445 15.1519437 -9.71599191 15.20086443 -6 15 C-5.67 14.34 -5.34 13.68 -5 13 C-7.97 13 -10.94 13 -14 13 Z " fill="#101010" transform="translate(23,0)"/>
</svg>
